HIERARCHY
ROOT pelvis
{
  OFFSET 0 100 0
  CHANNELS 6 Xposition Yposition Zposition Zrotation Xrotation Yrotation
  JOINT pelvis_right_femur
  {
    OFFSET -10.78128 -3.44521 -0.5502486
    CHANNELS 3 Zrotation Xrotation Yrotation
    JOINT right_femur_tibia
    {
      OFFSET -0.8047443 -44.0398 -0.1307829
      CHANNELS 3 Zrotation Xrotation Yrotation
      JOINT right_tibia_foot
      {
        OFFSET 3.006224 -47.83518 -5
        CHANNELS 3 Zrotation Xrotation Yrotation
        End Site
        {
          OFFSET 0 -5 15
        }
      }
    }
  }
  JOINT pelvis_left_femur
  {
    OFFSET 10.78128 -3.44521 -0.5502486
    CHANNELS 3 Zrotation Xrotation Yrotation
    JOINT left_femur_tibia
    {
      OFFSET 0.8047443 -44.0398 -0.1307829
      CHANNELS 3 Zrotation Xrotation Yrotation
      JOINT left_tibia_foot
      {
        OFFSET -4.370144 -48.10324 -4.275266
        CHANNELS 3 Zrotation Xrotation Yrotation
        End Site
        {
          OFFSET 0 -5 15
        }
      }
    }
  }
  JOINT pelvis_spine1
  {
    OFFSET 0 6.468898 -3.129235
    CHANNELS 3 Zrotation Xrotation Yrotation
    JOINT spine1
    {
      OFFSET 0 23.15396 4.99043
      CHANNELS 3 Zrotation Xrotation Yrotation
      JOINT spine2
      {
        OFFSET 0 20.79997 -5.064912
        CHANNELS 3 Zrotation Xrotation Yrotation
        JOINT neck
        {
          OFFSET 0 14.38658 9.616178
          CHANNELS 3 Zrotation Xrotation Yrotation
          End Site
          {
            OFFSET 0 20 0
          }
        }
      }
      JOINT right_manubrium
      {
        OFFSET -5.722621 16.35077 3.967754
        CHANNELS 3 Zrotation Xrotation Yrotation
        JOINT right_clavicle
        {
          OFFSET -13.16364 1.694482 -4.693211
          CHANNELS 3 Zrotation Xrotation Yrotation
          JOINT right_humerus
          {
            OFFSET -28.5034 -0.3100689 -2.792744
            CHANNELS 3 Zrotation Xrotation Yrotation
            JOINT right_radius
            {
              OFFSET -25.15693 0.02248979 -1.271978
              CHANNELS 3 Zrotation Xrotation Yrotation
              End Site
              {
                OFFSET -15 0 0
              }
            }
          }
        }
      }
      JOINT left_manubrium
      {
        OFFSET 5.722621 16.35077 3.967754
        CHANNELS 3 Zrotation Xrotation Yrotation
        JOINT left_clavicle
        {
          OFFSET 13.16364 1.694482 -4.693211
          CHANNELS 3 Zrotation Xrotation Yrotation
          JOINT left_humerus
          {
            OFFSET 29.39168 -1.063119 -2.237045
            CHANNELS 3 Zrotation Xrotation Yrotation
            JOINT left_radius
            {
              OFFSET 24.59957 -0.9528479 0.9047498
              CHANNELS 3 Zrotation Xrotation Yrotation
              End Site
              {
                OFFSET 15 -0 -0
              }
            }
          }
        }
      }
    }
  }
}
MOTION
Frames: 11
Frame Time: 0.0416666666667
0 103.5113 0 1.115873 -1.985425 -0.003000502 1.028882 -12.81965 8.382734 -0 41.98236 -0 -7.134188 -14.31392 -3.503734 -6.636208 11.66592 -25.71317 -0 4.544283 -0 0.8098684 -18.81513 25.15379 -1.842027 -1.297214 3.128287 1.783297 5.837299 -7.258564 1.715181 23.58674 6.401444 3.956431 -21.47485 7.725384 5.799772 -17.24287 10.39621 85.82585 34.96571 -21.47197 -0 0 15.83607 -6.711129 8.957454 2.655713 4.965305 -19.01364 -3.353503 -99.16906 42.30476 26.63348 0 0 -22.76472 -11.26434 18.7395 28.4196
0.2153816 103.6388 1.386935 1.128004 -1.476967 -0.02424887 0.9792368 -13.53368 9.111645 -0 42.85459 -0 -6.211346 -15.50501 -3.733826 -6.721786 11.99856 -26.46712 -0 3.917183 -0 0.06788161 -19.43337 25.16571 -1.853319 -1.255394 3.046359 1.783584 5.754867 -7.28069 1.729817 23.62983 6.465412 3.956998 -21.49362 7.801681 5.79854 -17.06379 10.37493 85.9979 35.10687 -21.71785 -0 0 15.52022 -6.81543 9.098633 2.664473 4.968578 -19.03318 -3.358664 -98.95426 42.67405 26.27285 0 0 -23.32603 -11.59078 18.69817 28.85379
0.3984449 103.4953 2.911096 1.044907 -0.8434799 -0.03013812 1.695505 -18.33782 7.801329 -0 38.27426 -0 -5.891092 -12.58799 -2.824169 -6.88909 12.79625 -25.45974 -0 4.638614 -0 0.1560844 -21.87843 24.53394 -1.856613 -1.249713 3.512974 1.84938 6.386322 -7.21373 1.464649 23.25654 6.646291 3.961591 -22.0459 7.724645 5.719722 -17.70136 10.66723 85.52218 35.08844 -20.54996 -0 0 15.81534 -8.092095 9.274852 3.809 4.813356 -19.0649 -3.193762 -98.34723 39.99692 26.44918 0 0 -21.63832 -9.302836 17.80708 26.15759
0.5631464 103.1458 4.550688 0.9414156 -0.1947019 -0.006137375 2.199525 -21.70869 7.123937 -0 34.97432 -0 -5.41637 -11.15236 -2.355567 -6.947148 13.3055 -24.79028 -0 4.644599 -0 0.06939606 -23.50295 23.96237 -1.861747 -1.235139 3.6221 1.955531 6.636927 -7.288148 1.328312 23.09058 6.784947 3.952672 -22.47681 7.76264 5.658783 -17.8566 10.78355 85.63601 35.13939 -20.45438 -0 0 15.53047 -8.515196 9.242044 4.249404 4.759154 -19.18881 -3.096151 -97.83813 38.96064 26.13026 0 0 -21.35646 -8.24444 17.30308 24.96613
0.7148479 102.5592 6.437645 0.7056967 0.5902127 0.06173729 3.130727 -25.69415 6.4378 -0 30.56546 -0 -4.878151 -9.803562 -2.044976 -6.873902 13.88997 -23.53968 -0 4.660032 -0 0.7100241 -24.80576 23.22512 -1.868975 -1.213235 3.700485 2.084912 6.883547 -7.394269 1.187073 22.91783 6.946638 3.937505 -22.9636 7.83085 5.588928 -17.96223 10.89899 85.85301 35.2254 -20.48228 -0 0 15.09832 -8.928943 9.212298 4.691554 4.71066 -19.34864 -2.988251 -97.21614 37.92982 25.6491 0 0 -21.24639 -7.148605 16.74605 23.74511
0.859852 101.7774 8.660463 0.398457 1.462442 0.1906856 4.087009 -29.27617 5.870878 -0 26.35252 -0 -4.395874 -8.584087 -1.82321 -6.73256 14.40082 -22.20244 -0 4.811941 -0 1.22686 -25.67791 22.26436 -1.875168 -1.188369 3.69025 2.240226 7.052882 -7.554012 1.06737 22.77629 7.114676 3.91414 -23.47172 7.942817 5.515841 -17.94771 10.98053 86.26185 35.34743 -20.8198 -0 0 14.46477 -9.154523 9.151917 4.988944 4.683387 -19.55311 -2.886822 -96.54522 37.23817 24.97805 0 0 -21.54856 -6.281845 16.24412 22.82237
1.006002 100.8633 11.36196 -0.02899316 2.454483 0.4039626 5.16403 -32.54679 5.351868 -0 22.20129 -0 -4.06749 -7.283188 -1.661874 -6.497195 14.85632 -20.63226 -0 5.488137 -0 1.636935 -25.97464 20.90935 -1.880573 -1.158098 3.626974 2.418453 7.18869 -7.755161 0.9544135 22.64014 7.300112 3.882029 -24.02038 8.093265 5.435108 -17.85481 11.04946 86.81638 35.50745 -21.36411 -0 0 13.66337 -9.313452 9.107741 5.235779 4.66503 -19.79763 -2.783692 -95.77703 36.69386 24.12896 0 0 -22.15103 -5.506399 15.73785 22.03282
1.160215 99.90488 14.66793 -0.5587846 3.520807 0.7212796 6.192112 -35.12499 4.856439 -0 18.55068 -0 -3.993954 -5.867369 -1.514077 -6.181997 15.18922 -18.99911 -0 6.964454 -0 1.540051 -25.62343 19.07183 -1.884629 -1.123986 3.531533 2.604395 7.301833 -7.97729 0.8503834 22.5073 7.492876 3.842813 -24.57412 8.267725 5.350509 -17.70951 11.11057 87.45555 35.6919 -22.02795 -0 0 12.77064 -9.452084 9.108685 5.457506 4.651178 -20.06281 -2.68414 -94.94544 36.24466 23.16975 0 0 -22.95809 -4.817487 15.23881 21.35932
1.32953 99.01532 18.69575 -1.184395 4.578697 1.152331 7.087812 -36.70685 4.36366 -0 15.67103 -0 -4.267918 -4.370848 -1.377052 -5.777543 15.3403 -17.37241 -0 9.680868 -0 0.7509833 -24.44894 16.71985 -1.888085 -1.085611 3.429158 2.781393 7.408862 -8.196706 0.7551153 22.3743 7.685781 3.799024 -25.09714 8.450353 5.266246 -17.54007 11.17119 88.10733 35.89223 -22.70434 -0 0 11.86298 -9.641946 9.189279 5.696139 4.636083 -20.32765 -2.592843 -94.07694 35.81202 22.16618 0 0 -23.85344 -4.191148 14.74668 20.75981
1.518605 98.32269 23.50697 -1.850913 5.454552 1.676087 7.734646 -36.92691 3.890318 -0 13.87459 -0 -4.923778 -2.959154 -1.271806 -5.29412 15.221 -15.88809 -0 14.04508 -0 -0.8304362 -22.34297 14.0286 -1.892771 -1.042383 3.349604 2.924604 7.522556 -8.379236 0.6715791 22.24438 7.865738 3.7558 -25.53041 8.617396 5.190921 -17.37896 11.23624 88.6675 36.09795 -23.25195 -0 0 11.04943 -9.958621 9.381783 5.990271 4.614509 -20.55946 -2.518482 -93.23119 35.33267 21.22128 0 0 -24.67946 -3.626928 14.27629 20.21292
1.726366 97.96547 29.07644 -2.463822 5.90037 2.224549 8.076014 -35.47352 3.495974 -0 13.3457 -0 -5.932647 -1.864952 -1.247871 -4.755808 14.6902 -14.64023 -0 20.44857 -0 -3.0822 -19.27291 11.37167 -1.901428 -0.9921918 3.319752 3.00942 7.652122 -8.491372 0.6026371 22.1241 8.021647 3.719139 -25.81552 8.745934 5.133699 -17.25286 11.30895 89.03403 36.30319 -23.53672 -0 0 10.42891 -10.47722 9.711776 6.37667 4.581635 -20.72578 -2.470194 -92.46779 34.76353 20.43141 0 0 -25.28862 -3.136417 13.84167 19.71259
